<?xml version="1.0" encoding="UTF-8"?>
<svg id="Layer_2" data-name="Layer 2" xmlns="http://www.w3.org/2000/svg" xmlns:xlink="http://www.w3.org/1999/xlink" viewBox="0 0 145.8 145.8">
  <defs>
    <style>
      .cls-1 {
        fill: #a40d09;
      }

      .cls-2 {
        fill: url(#linear-gradient-7);
      }

      .cls-3 {
        fill: url(#linear-gradient-5);
      }

      .cls-4 {
        fill: url(#linear-gradient-6);
      }

      .cls-5 {
        fill: url(#linear-gradient-4);
      }

      .cls-6 {
        fill: url(#linear-gradient-3);
      }

      .cls-7 {
        fill: url(#linear-gradient-2);
      }

      .cls-8 {
        fill: url(#linear-gradient);
      }

      .cls-9 {
        fill: #fff;
      }
    </style>
    <linearGradient id="linear-gradient" x1="47.5" y1="50.33" x2="47.5" y2="32.14" gradientUnits="userSpaceOnUse">
      <stop offset="0" stop-color="#002868"/>
      <stop offset="1" stop-color="#004fab"/>
    </linearGradient>
    <linearGradient id="linear-gradient-2" x1="98.04" y1="50.33" x2="98.04" y2="32.14" gradientUnits="userSpaceOnUse">
      <stop offset="0" stop-color="#ff4200"/>
      <stop offset="1" stop-color="#fd8009"/>
    </linearGradient>
    <linearGradient id="linear-gradient-3" x1="48.66" y1="113.66" x2="48.66" y2="54.48" gradientUnits="userSpaceOnUse">
      <stop offset="0" stop-color="#01184b"/>
      <stop offset="1" stop-color="#024495"/>
    </linearGradient>
    <linearGradient id="linear-gradient-4" x1="96.95" y1="113.66" x2="96.95" y2="54.48" gradientUnits="userSpaceOnUse">
      <stop offset="0" stop-color="#e91a0c"/>
      <stop offset="1" stop-color="#f94f03"/>
    </linearGradient>
    <linearGradient id="linear-gradient-5" x1="69.24" y1="99.2" x2="93.26" y2="57.59" gradientTransform="translate(.98 -1.38) rotate(-.13) skewX(-.27)" gradientUnits="userSpaceOnUse">
      <stop offset="0" stop-color="#0b1042"/>
      <stop offset=".33" stop-color="#0d1648"/>
      <stop offset="1" stop-color="#a00e0d"/>
    </linearGradient>
    <linearGradient id="linear-gradient-6" x1="56.67" y1="85.3" x2="97.58" y2="44.39" gradientUnits="userSpaceOnUse">
      <stop offset="0" stop-color="#00205a"/>
      <stop offset=".27" stop-color="#140f3e"/>
      <stop offset=".35" stop-color="#3e0f31"/>
      <stop offset=".46" stop-color="#731121"/>
      <stop offset=".54" stop-color="#951117"/>
      <stop offset=".59" stop-color="#a21214"/>
      <stop offset=".87" stop-color="#f67403"/>
      <stop offset="1" stop-color="#fd7c02"/>
    </linearGradient>
    <linearGradient id="linear-gradient-7" x1="37.33" y1="69.98" x2="72.67" y2="69.98" gradientUnits="userSpaceOnUse">
      <stop offset="0" stop-color="#0475cc"/>
      <stop offset="1" stop-color="#02368e"/>
    </linearGradient>
  </defs>
  <g id="Layer_1-2" data-name="Layer 1">
    <g>
      <rect class="cls-9" width="145.8" height="145.8" rx="30.99" ry="30.99"/>
      <g>
        <circle class="cls-8" cx="47.5" cy="41.23" r="9.1"/>
        <circle class="cls-7" cx="98.04" cy="41.23" r="9.1"/>
        <g>
          <rect class="cls-1" x="55.58" y="53.2" width="13.93" height="48.19" rx="6.93" ry="6.93" transform="translate(158.32 104.07) rotate(144.6)"/>
          <path class="cls-6" d="M48.66,54.48c-2.83,0-5.43.89-7.52,2.4-2.97,2.14-4.88,5.5-4.88,9.3v39.74c0,4.26,3.49,7.75,7.75,7.75h2.45c4.26,0,7.75-3.49,7.75-7.75v-29.28c4.06-1.92,6.85-5.88,6.85-10.45,0-6.46-5.55-11.69-12.4-11.69Z"/>
          <path class="cls-5" d="M104.5,56.81c-2.1-1.46-4.71-2.33-7.54-2.33-6.95,0-12.59,5.23-12.59,11.69,0,4.68,2.96,8.71,7.23,10.58v29.16c0,4.26,3.49,7.75,7.75,7.75h2.45c4.26,0,7.75-3.49,7.75-7.75v-39.74c0-3.83-1.98-7.23-5.05-9.36Z"/>
          <path class="cls-3" d="M68.73,97.16l-.07-.05c-3.1-2.21-3.83-6.56-1.61-9.68l20-28.13c2.22-3.12,6.57-3.87,9.67-1.66l.07.05c3.1,2.21.34,10.06-1.88,13.17l-16.51,24.64c-2.22,3.12-6.57,3.87-9.67,1.66Z"/>
          <path class="cls-4" d="M67.86,85.07l4.42-6.1,12.25-16.89c4.68-8.58,13.13-7.59,13.13-7.59,8.74.8,10.84,7.01,10.84,7.01-5.26-2.7-10.48,1.42-12.28,3.09-.39.36-.74.76-1.04,1.19l-20.58,28.96c-1.33,1.87-4.14,3.09-6.19,2.07-1.11-.55-2.01-2.08-3.27-3.86-4.59-6.46-11.62-16.35-11.62-16.35,0,0-3.52-6.07-4.27-11.37-.76-5.3,23.42,14.26,23.42,14.26"/>
          <path class="cls-2" d="M72.67,79.52s-3.93,5.15-4.81,5.56-3.22,1.21-5.78-1.76l-12.83-18.06s-5.41-7.19-11.92-3.85c0,0,3.18-6.77,10.86-6.92,0,0,8.54-.24,12.09,7.61l12.39,17.43Z"/>
        </g>
      </g>
    </g>
  </g>
</svg>